<?xml version="1.0" encoding="UTF-8"?> <svg xmlns="http://www.w3.org/2000/svg" xmlns:xlink="http://www.w3.org/1999/xlink" version="1.1" width="1644px" height="882px" style="shape-rendering:geometricPrecision; text-rendering:geometricPrecision; image-rendering:optimizeQuality; fill-rule:evenodd; clip-rule:evenodd"><g><path style="opacity:0.987" fill="#929596" d="M 1244.5,-0.5 C 1374.83,-0.5 1505.17,-0.5 1635.5,-0.5C 1636.88,0.234419 1638.38,0.901085 1640,1.5C 1641.49,6.22421 1642.66,10.8909 1643.5,15.5C 1643.5,30.5 1643.5,45.5 1643.5,60.5C 1642.28,70.1398 1640.45,79.8064 1638,89.5C 1564.55,262.399 1490.55,435.065 1416,607.5C 1413.93,612.626 1410.1,615.459 1404.5,616C 1399.2,616.93 1393.87,617.597 1388.5,618C 1367.83,618.667 1347.17,618.667 1326.5,618C 1318.24,617.774 1310.24,616.44 1302.5,614C 1383.59,435.327 1464.25,256.494 1544.5,77.5C 1444.5,77.6667 1344.5,77.5 1244.5,77C 1237.85,51.2044 1237.85,25.3711 1244.5,-0.5 Z"></path></g><g><path style="opacity:0.982" fill="#0092a3" d="M 1359.5,126.5 C 1362.83,126.5 1366.17,126.5 1369.5,126.5C 1369.67,143.837 1369.5,161.17 1369,178.5C 1363.59,203.917 1348.75,221.417 1324.5,231C 1317.3,233.052 1309.97,234.219 1302.5,234.5C 1302.33,216.83 1302.5,199.164 1303,181.5C 1310.25,151.086 1329.08,132.752 1359.5,126.5 Z"></path></g><g><path style="opacity:0.988" fill="#0092a3" d="M 954.5,173.5 C 987.725,175.223 1009.56,191.889 1020,223.5C 1021.36,233.109 1021.86,242.776 1021.5,252.5C 1055.83,252.333 1090.17,252.5 1124.5,253C 1180.89,256.77 1224.39,282.27 1255,329.5C 1276.47,366.319 1282.8,405.652 1274,447.5C 1258.22,505.95 1221.72,545.117 1164.5,565C 1084.9,584.478 1022.07,560.644 976,493.5C 964.403,473.707 957.403,452.374 955,429.5C 954.5,344.167 954.333,258.834 954.5,173.5 Z M 1021.5,317.5 C 1057.5,317.333 1093.5,317.5 1129.5,318C 1164.64,324.658 1189.14,344.491 1203,377.5C 1217.74,426.623 1204.24,465.79 1162.5,495C 1121.58,515.851 1084.08,511.018 1050,480.5C 1032.12,462.227 1022.79,440.227 1022,414.5C 1021.5,382.168 1021.33,349.835 1021.5,317.5 Z"></path></g><g><path style="opacity:0.987" fill="#0092a3" d="M -0.5,571.5 C -0.5,512.5 -0.5,453.5 -0.5,394.5C 8.62942,336.183 39.6294,293.683 92.5,267C 159.878,240.562 220.545,251.228 274.5,299C 279,304.167 283.5,309.333 288,314.5C 335.746,259.763 394.913,241.597 465.5,260C 520.192,279.358 555.692,316.858 572,372.5C 573.875,380.748 575.208,389.081 576,397.5C 576.5,455.499 576.667,513.499 576.5,571.5C 547.697,570.679 526.864,557.345 514,531.5C 511.231,524.758 509.565,517.758 509,510.5C 508.667,473.5 508.333,436.5 508,399.5C 502.631,368.238 486.464,344.404 459.5,328C 433.419,315.577 406.752,314.244 379.5,324C 345.534,340.646 326.368,367.813 322,405.5C 321.5,460.832 321.333,516.166 321.5,571.5C 291.158,570.744 269.991,556.41 258,528.5C 255.642,522.043 254.309,515.377 254,508.5C 253.667,472.167 253.333,435.833 253,399.5C 248.127,368.904 232.627,345.404 206.5,329C 184.343,317.225 161.009,314.225 136.5,320C 107.221,328.943 86.3879,347.443 74,375.5C 71.1841,382.614 69.1841,389.947 68,397.5C 66.7279,437.145 66.0613,476.812 66,516.5C 60.4978,542.338 45.3311,559.838 20.5,569C 13.6391,570.988 6.63911,571.822 -0.5,571.5 Z"></path></g><g><path style="opacity:0.985" fill="#0092a3" d="M 759.5,252.5 C 831.335,252.237 883.502,283.904 916,347.5C 935.859,396.604 933.526,444.604 909,491.5C 864.294,559.076 802.128,583.909 722.5,566C 679.239,552.404 646.405,525.904 624,486.5C 599.826,435.011 600.826,384.011 627,333.5C 657.469,284.178 701.636,257.178 759.5,252.5 Z M 754.5,317.5 C 806.261,314.782 840.761,337.782 858,386.5C 868.18,433.317 853.347,469.817 813.5,496C 787.242,509.345 760.242,511.012 732.5,501C 691.609,481.074 672.442,448.241 675,402.5C 680.369,365.136 700.202,338.636 734.5,323C 741.208,320.826 747.875,318.993 754.5,317.5 Z"></path></g><g><path style="opacity:0.991" fill="#0092a3" d="M 1302.5,252.5 C 1338.25,255.083 1360.41,273.75 1369,308.5C 1369.67,347.167 1369.67,385.833 1369,424.5C 1351.36,464.436 1333.2,504.103 1314.5,543.5C 1308.48,535.452 1304.64,526.452 1303,516.5C 1302.5,428.501 1302.33,340.501 1302.5,252.5 Z"></path></g><g><path style="opacity:0.973" fill="#474441" d="M 547.5,692.5 C 557.5,692.5 567.5,692.5 577.5,692.5C 577.5,754.5 577.5,816.5 577.5,878.5C 567.251,878.819 557.084,878.486 547,877.5C 546.171,815.763 546.338,754.096 547.5,692.5 Z"></path></g><g><path style="opacity:0.943" fill="#474441" d="M 599.5,692.5 C 609.833,692.5 620.167,692.5 630.5,692.5C 635.407,718.759 624.907,729.426 599,724.5C 598.213,713.787 598.38,703.12 599.5,692.5 Z"></path></g><g><path style="opacity:0.969" fill="#474441" d="M 175.5,881.5 C 169.167,881.5 162.833,881.5 156.5,881.5C 111.927,871.42 91.4273,843.42 95,797.5C 104.111,760.395 127.777,740.728 166,738.5C 204.223,740.728 227.889,760.395 237,797.5C 240.559,843.459 220.059,871.459 175.5,881.5 Z M 159.5,767.5 C 185.547,766.724 201.047,779.058 206,804.5C 206.753,837.08 190.92,852.914 158.5,852C 140.108,847.608 129.275,836.108 126,817.5C 123.525,791.398 134.692,774.731 159.5,767.5 Z"></path></g><g><path style="opacity:0.965" fill="#474441" d="M 328.5,881.5 C 321.833,881.5 315.167,881.5 308.5,881.5C 269.34,873.832 248.34,849.998 245.5,810C 249.493,765.507 273.827,741.674 318.5,738.5C 346.768,738.824 367.768,751.157 381.5,775.5C 380.96,776.748 380.293,777.915 379.5,779C 372.175,783.246 364.675,787.079 357,790.5C 353.387,788.542 350.72,785.542 349,781.5C 328.059,762.577 307.392,762.91 287,782.5C 274.333,801.167 274.333,819.833 287,838.5C 304.361,854.992 323.194,856.825 343.5,844C 347.675,840.472 351.008,836.305 353.5,831.5C 354.438,830.447 355.605,829.78 357,829.5C 365.512,833.418 373.512,838.084 381,843.5C 380.665,846.255 379.665,848.922 378,851.5C 365.566,868.297 349.066,878.297 328.5,881.5 Z"></path></g><g><path style="opacity:0.967" fill="#474441" d="M 460.5,881.5 C 454.833,881.5 449.167,881.5 443.5,881.5C 406.546,872.345 387.212,848.512 385.5,810C 386.271,778.756 400.605,756.422 428.5,743C 450.489,735.189 470.822,738.189 489.5,752C 491.709,753.873 493.542,756.04 495,758.5C 495.499,752.843 495.666,747.176 495.5,741.5C 505.749,741.181 515.916,741.514 526,742.5C 526.667,787.5 526.667,832.5 526,877.5C 515.916,878.486 505.749,878.819 495.5,878.5C 495.666,873.156 495.499,867.823 495,862.5C 485.667,872.914 474.167,879.247 460.5,881.5 Z M 448.5,767.5 C 472.526,764.753 488.36,774.753 496,797.5C 500.425,816.888 495.258,833.055 480.5,846C 460.063,857.733 441.896,854.899 426,837.5C 415.494,820.572 414.828,803.238 424,785.5C 430.185,776.671 438.352,770.671 448.5,767.5 Z"></path></g><g><path style="opacity:0.973" fill="#474441" d="M 837.5,881.5 C 832.167,881.5 826.833,881.5 821.5,881.5C 787.665,874.155 768.499,853.155 764,818.5C 761.33,786.003 773.83,761.503 801.5,745C 820.684,736.072 839.684,736.406 858.5,746C 863.588,749.083 868.088,752.917 872,757.5C 872.193,752.25 872.693,747.083 873.5,742C 883.494,741.5 893.494,741.334 903.5,741.5C 903.5,787.167 903.5,832.833 903.5,878.5C 893.494,878.666 883.494,878.5 873.5,878C 872.695,873.251 872.195,868.418 872,863.5C 862.3,873.099 850.8,879.099 837.5,881.5 Z M 826.5,767.5 C 854.032,765.009 870.198,777.343 875,804.5C 876.996,823.881 869.83,838.714 853.5,849C 831.845,857.557 814.345,852.39 801,833.5C 793.167,816.492 793.834,799.825 803,783.5C 809.12,775.533 816.953,770.2 826.5,767.5 Z"></path></g><g><path style="opacity:0.983" fill="#474441" d="M -0.5,741.5 C 10.5899,740.87 21.4232,741.537 32,743.5C 32.5,778.165 32.6667,812.832 32.5,847.5C 52.8333,847.5 73.1667,847.5 93.5,847.5C 93.5,857.833 93.5,868.167 93.5,878.5C 68.8311,878.667 44.1644,878.5 19.5,878C 9.6241,874.622 2.95744,868.122 -0.5,858.5C -0.5,819.5 -0.5,780.5 -0.5,741.5 Z"></path></g><g><path style="opacity:0.974" fill="#474441" d="M 599.5,741.5 C 609.749,741.181 619.916,741.514 630,742.5C 630.5,787.832 630.667,833.165 630.5,878.5C 620.167,878.5 609.833,878.5 599.5,878.5C 599.5,832.833 599.5,787.167 599.5,741.5 Z"></path></g><g><path style="opacity:0.975" fill="#474441" d="M 648.5,741.5 C 685.073,741.17 721.573,741.504 758,742.5C 758.667,750.5 758.667,758.5 758,766.5C 735.021,794.313 711.855,821.98 688.5,849.5C 712.16,850.333 735.826,850.833 759.5,851C 760.485,860.083 760.818,869.249 760.5,878.5C 722.833,878.5 685.167,878.5 647.5,878.5C 647.334,869.827 647.5,861.16 648,852.5C 671.523,825.278 694.69,797.778 717.5,770C 694.502,769.5 671.502,769.333 648.5,769.5C 648.5,760.167 648.5,750.833 648.5,741.5 Z"></path></g></svg> 